<svg id="visual" viewBox="0 0 1920 1080" width="1920" height="1080" xmlns="http://www.w3.org/2000/svg" xmlns:xlink="http://www.w3.org/1999/xlink" version="1.1"><rect x="0" y="0" width="1920" height="1080" fill="#ffffff"></rect><path d="M0 449L45.7 447.2C91.3 445.3 182.7 441.7 274.2 450.3C365.7 459 457.3 480 548.8 485.3C640.3 490.7 731.7 480.3 823 464.7C914.3 449 1005.7 428 1097 431.3C1188.3 434.7 1279.7 462.3 1371.2 468.5C1462.7 474.7 1554.3 459.3 1645.8 459.3C1737.3 459.3 1828.7 474.7 1874.3 482.3L1920 490L1920 0L1874.3 0C1828.7 0 1737.3 0 1645.8 0C1554.3 0 1462.7 0 1371.2 0C1279.7 0 1188.3 0 1097 0C1005.7 0 914.3 0 823 0C731.7 0 640.3 0 548.8 0C457.3 0 365.7 0 274.2 0C182.7 0 91.3 0 45.7 0L0 0Z" fill="#c62368"></path><path d="M0 367L45.7 369.7C91.3 372.3 182.7 377.7 274.2 391.2C365.7 404.7 457.3 426.3 548.8 433C640.3 439.7 731.7 431.3 823 428.8C914.3 426.3 1005.7 429.7 1097 429.8C1188.3 430 1279.7 427 1371.2 428.3C1462.7 429.7 1554.3 435.3 1645.8 434.7C1737.3 434 1828.7 427 1874.3 423.5L1920 420L1920 0L1874.3 0C1828.7 0 1737.3 0 1645.8 0C1554.3 0 1462.7 0 1371.2 0C1279.7 0 1188.3 0 1097 0C1005.7 0 914.3 0 823 0C731.7 0 640.3 0 548.8 0C457.3 0 365.7 0 274.2 0C182.7 0 91.3 0 45.7 0L0 0Z" fill="#ce2e68"></path><path d="M0 394L45.7 395C91.3 396 182.7 398 274.2 397.8C365.7 397.7 457.3 395.3 548.8 387.2C640.3 379 731.7 365 823 365.2C914.3 365.3 1005.7 379.7 1097 386.2C1188.3 392.7 1279.7 391.3 1371.2 391.8C1462.7 392.3 1554.3 394.7 1645.8 384.7C1737.3 374.7 1828.7 352.3 1874.3 341.2L1920 330L1920 0L1874.3 0C1828.7 0 1737.3 0 1645.8 0C1554.3 0 1462.7 0 1371.2 0C1279.7 0 1188.3 0 1097 0C1005.7 0 914.3 0 823 0C731.7 0 640.3 0 548.8 0C457.3 0 365.7 0 274.2 0C182.7 0 91.3 0 45.7 0L0 0Z" fill="#d53867"></path><path d="M0 346L45.7 342.3C91.3 338.7 182.7 331.3 274.2 319.3C365.7 307.3 457.3 290.7 548.8 292.5C640.3 294.3 731.7 314.7 823 317.5C914.3 320.3 1005.7 305.7 1097 302.7C1188.3 299.7 1279.7 308.3 1371.2 305.8C1462.7 303.3 1554.3 289.7 1645.8 287C1737.3 284.3 1828.7 292.7 1874.3 296.8L1920 301L1920 0L1874.3 0C1828.7 0 1737.3 0 1645.8 0C1554.3 0 1462.7 0 1371.2 0C1279.7 0 1188.3 0 1097 0C1005.7 0 914.3 0 823 0C731.7 0 640.3 0 548.8 0C457.3 0 365.7 0 274.2 0C182.7 0 91.3 0 45.7 0L0 0Z" fill="#dc4267"></path><path d="M0 221L45.7 226C91.3 231 182.7 241 274.2 243.2C365.7 245.3 457.3 239.7 548.8 242.8C640.3 246 731.7 258 823 266C914.3 274 1005.7 278 1097 274.7C1188.3 271.3 1279.7 260.7 1371.2 255.5C1462.7 250.3 1554.3 250.7 1645.8 249.3C1737.3 248 1828.7 245 1874.3 243.5L1920 242L1920 0L1874.3 0C1828.7 0 1737.3 0 1645.8 0C1554.3 0 1462.7 0 1371.2 0C1279.7 0 1188.3 0 1097 0C1005.7 0 914.3 0 823 0C731.7 0 640.3 0 548.8 0C457.3 0 365.7 0 274.2 0C182.7 0 91.3 0 45.7 0L0 0Z" fill="#e34c67"></path><path d="M0 205L45.7 206.5C91.3 208 182.7 211 274.2 213.8C365.7 216.7 457.3 219.3 548.8 217C640.3 214.7 731.7 207.3 823 201.7C914.3 196 1005.7 192 1097 198C1188.3 204 1279.7 220 1371.2 219.7C1462.7 219.3 1554.3 202.7 1645.8 197C1737.3 191.3 1828.7 196.7 1874.3 199.3L1920 202L1920 0L1874.3 0C1828.7 0 1737.3 0 1645.8 0C1554.3 0 1462.7 0 1371.2 0C1279.7 0 1188.3 0 1097 0C1005.7 0 914.3 0 823 0C731.7 0 640.3 0 548.8 0C457.3 0 365.7 0 274.2 0C182.7 0 91.3 0 45.7 0L0 0Z" fill="#e95667"></path><path d="M0 157L45.7 159.7C91.3 162.3 182.7 167.7 274.2 164.7C365.7 161.7 457.3 150.3 548.8 148C640.3 145.7 731.7 152.3 823 158.7C914.3 165 1005.7 171 1097 171C1188.3 171 1279.7 165 1371.2 161.2C1462.7 157.3 1554.3 155.7 1645.8 159.8C1737.3 164 1828.7 174 1874.3 179L1920 184L1920 0L1874.3 0C1828.7 0 1737.3 0 1645.8 0C1554.3 0 1462.7 0 1371.2 0C1279.7 0 1188.3 0 1097 0C1005.7 0 914.3 0 823 0C731.7 0 640.3 0 548.8 0C457.3 0 365.7 0 274.2 0C182.7 0 91.3 0 45.7 0L0 0Z" fill="#ef5f67"></path><path d="M0 113L45.7 114C91.3 115 182.7 117 274.2 114.3C365.7 111.7 457.3 104.3 548.8 102.2C640.3 100 731.7 103 823 105.2C914.3 107.3 1005.7 108.7 1097 106.3C1188.3 104 1279.7 98 1371.2 99C1462.7 100 1554.3 108 1645.8 114C1737.3 120 1828.7 124 1874.3 126L1920 128L1920 0L1874.3 0C1828.7 0 1737.3 0 1645.8 0C1554.3 0 1462.7 0 1371.2 0C1279.7 0 1188.3 0 1097 0C1005.7 0 914.3 0 823 0C731.7 0 640.3 0 548.8 0C457.3 0 365.7 0 274.2 0C182.7 0 91.3 0 45.7 0L0 0Z" fill="#f56967"></path><path d="M0 46L45.7 47.2C91.3 48.3 182.7 50.7 274.2 56.7C365.7 62.7 457.3 72.3 548.8 76.7C640.3 81 731.7 80 823 76C914.3 72 1005.7 65 1097 62.3C1188.3 59.7 1279.7 61.3 1371.2 64.2C1462.7 67 1554.3 71 1645.8 71.8C1737.3 72.7 1828.7 70.3 1874.3 69.2L1920 68L1920 0L1874.3 0C1828.7 0 1737.3 0 1645.8 0C1554.3 0 1462.7 0 1371.2 0C1279.7 0 1188.3 0 1097 0C1005.7 0 914.3 0 823 0C731.7 0 640.3 0 548.8 0C457.3 0 365.7 0 274.2 0C182.7 0 91.3 0 45.7 0L0 0Z" fill="#fa7268"></path></svg>